<?xml version="1.0" standalone="no"?>
<!DOCTYPE svg PUBLIC "-//W3C//DTD SVG 20010904//EN"
 "http://www.w3.org/TR/2001/REC-SVG-20010904/DTD/svg10.dtd">
<svg version="1.0" xmlns="http://www.w3.org/2000/svg"
 width="539.000000pt" height="539.000000pt" viewBox="0 0 539.000000 539.000000"
 preserveAspectRatio="xMidYMid meet">
<metadata>
Created by potrace 1.11, written by Peter Selinger 2001-2013
</metadata>
<g transform="translate(0.000000,539.000000) scale(0.100000,-0.100000)"
fill="#000000" stroke="none">
<path d="M2342 5379 c-56 -11 -98 -41 -123 -92 -44 -86 0 -222 108 -332 29
-30 59 -55 65 -56 104 -9 269 86 319 183 52 102 10 217 -91 249 -28 8 -44 7
-80 -5 -45 -15 -45 -15 -75 14 -40 38 -71 48 -123 39z"/>
<path d="M2250 4733 c-106 -40 -139 -176 -62 -261 36 -40 65 -54 117 -54 48 0
89 18 122 54 95 101 20 270 -118 267 -24 0 -51 -3 -59 -6z"/>
<path d="M2248 4233 c-54 -34 -58 -111 -8 -155 50 -46 120 -32 152 30 44 89
-58 178 -144 125z"/>
<path d="M2568 3955 c-2 -2 -46 -7 -98 -10 -52 -3 -120 -7 -150 -10 -52 -4
-117 -9 -290 -20 -41 -3 -83 -8 -93 -11 -27 -8 -48 -59 -43 -103 l4 -39 -92
-27 c-241 -71 -518 -191 -644 -277 -178 -123 -330 -324 -407 -538 -21 -57 -71
-243 -80 -293 -4 -23 -13 -40 -23 -43 -175 -55 -301 -227 -296 -404 1 -36 4
-78 7 -95 3 -16 15 -84 26 -150 12 -66 23 -129 25 -140 2 -11 16 -87 30 -170
26 -149 31 -177 41 -225 3 -14 7 -43 10 -65 3 -22 9 -53 12 -70 4 -16 8 -37 9
-45 1 -8 5 -28 8 -45 3 -16 11 -59 17 -95 36 -216 136 -337 324 -392 28 -8 55
-13 61 -11 6 2 32 -31 57 -74 25 -43 59 -91 74 -108 123 -130 332 -250 582
-334 98 -33 300 -86 366 -95 22 -4 47 -8 55 -11 18 -5 66 -12 145 -21 33 -3
68 -8 77 -10 108 -20 608 -20 713 0 11 2 51 7 90 11 38 4 72 8 75 10 3 1 27 6
54 9 304 41 716 186 1001 353 139 82 314 209 324 235 4 12 34 31 72 47 236
100 377 305 416 606 14 111 8 431 -11 625 -9 79 -17 146 -21 160 -2 8 -6 38
-10 65 -3 28 -13 84 -22 125 -8 41 -17 84 -19 95 -20 104 -43 206 -58 265 -53
203 -87 303 -137 405 -104 215 -243 362 -426 454 -70 35 -336 107 -428 116 -5
1 -23 4 -40 8 -16 3 -54 9 -84 12 -30 4 -63 8 -74 11 -11 2 -52 6 -91 10 -39
3 -102 17 -141 31 -189 68 -392 123 -510 138 -27 4 -53 9 -56 11 -6 3 -165 17
-206 18 -16 0 -23 8 -27 31 -4 17 -12 39 -19 48 -11 16 -71 40 -79 32z"/>
</g>
</svg>
