<?xml version="1.0" encoding="UTF-8"?>
<svg width="172px" height="54px" viewBox="0 0 172 54" version="1.1" xmlns="http://www.w3.org/2000/svg" xmlns:xlink="http://www.w3.org/1999/xlink">
    <!-- Generator: Sketch 41.2 (35397) - http://www.bohemiancoding.com/sketch -->
    <title>aminalanding</title>
    <desc>Created with Sketch.</desc>
    <defs></defs>
    <g id="Page-1" stroke="none" stroke-width="1" fill="none" fill-rule="evenodd">
        <path d="M65.6090498,9.1971587 C63.040724,8.18329868 60.0054299,8.18329868 57.7484163,8.97990298 C55.6470588,9.7040887 53.9348416,10.8627859 52.6117647,12.3835759 C51.4443439,10.7903673 49.8099548,9.63167013 47.8642534,8.97990298 C46.7746606,8.61781012 45.6072398,8.4005544 44.439819,8.4005544 C41.638009,8.4005544 39.3031674,9.12474012 37.4352941,10.7179487 L37.4352941,10.2834373 C37.4352941,9.48683299 36.7348416,8.83506584 35.878733,8.83506584 L32.999095,8.83506584 C32.1429864,8.83506584 31.4425339,9.48683299 31.4425339,10.2834373 L31.4425339,33.529799 C31.4425339,34.3264033 32.1429864,34.9781705 32.999095,34.9781705 L35.878733,34.9781705 C36.7348416,34.9781705 37.4352941,34.3264033 37.4352941,33.529799 L37.4352941,19.480596 C37.4352941,17.5977131 37.9800905,16.2217602 39.2253394,15.1354816 C40.3149321,14.1216216 41.7158371,13.6146916 43.4280543,13.6146916 C44.9846154,13.6146916 46.3076923,14.1216216 47.241629,15.1354816 C48.3312217,16.2217602 48.79819,17.6701317 48.79819,19.4081774 L48.79819,33.4573805 C48.79819,34.2539848 49.4986425,34.9057519 50.3547511,34.9057519 L53.2343891,34.9057519 C54.0904977,34.9057519 54.7909502,34.2539848 54.7909502,33.4573805 L54.7909502,19.480596 C54.7909502,17.5977131 55.3357466,16.2217602 56.5809955,15.1354816 C57.6705882,14.1216216 59.0714932,13.6146916 60.7837104,13.6146916 C62.3402715,13.6146916 63.6633484,14.1216216 64.5972851,15.1354816 C65.6868778,16.2217602 66.1538462,17.6701317 66.1538462,19.4081774 L66.1538462,33.4573805 C66.1538462,34.2539848 66.8542986,34.9057519 67.7104072,34.9057519 L70.5900452,34.9057519 C71.4461538,34.9057519 72.1466063,34.2539848 72.1466063,33.4573805 L72.1466063,19.3357588 C72.1466063,16.2217602 71.0570136,13.542273 68.9556561,11.3697159 C68.0995475,10.500693 66.9321267,9.7040887 65.6090498,9.1971587 Z" id="Shape" fill="#FFFCF5"></path>
        <path d="M77.2054299,34.9781705 L80.0850679,34.9781705 C80.9411765,34.9781705 81.641629,34.3264033 81.641629,33.529799 L81.641629,10.2834373 C81.641629,9.48683299 80.9411765,8.83506584 80.0850679,8.83506584 L77.2054299,8.83506584 C76.3493213,8.83506584 75.6488688,9.48683299 75.6488688,10.2834373 L75.6488688,33.529799 C75.6488688,34.3264033 76.3493213,34.9781705 77.2054299,34.9781705 Z" id="Shape" fill="#FFFCF5"></path>
        <path d="M77.0497738,6.66250866 L80.240724,6.66250866 C81.0968326,6.66250866 81.7972851,6.01074151 81.7972851,5.21413721 L81.7972851,1.44837145 C81.7972851,0.651767152 81.0968326,0 80.240724,0 L77.0497738,0 C76.1936652,0 75.4932127,0.651767152 75.4932127,1.44837145 L75.4932127,5.21413721 C75.4932127,6.01074151 76.1936652,6.66250866 77.0497738,6.66250866 Z" id="Shape" fill="#FFFCF5"></path>
        <path d="M103.122172,9.1971587 C101.721267,8.69022869 100.086878,8.47297297 98.2968326,8.47297297 C96.3511312,8.47297297 94.638914,8.90748441 93.0823529,9.84892585 C92.4597285,10.2110187 91.8371041,10.6455301 91.2144796,11.1524602 L91.2144796,10.3558559 C91.2144796,9.55925156 90.5140271,8.90748441 89.6579186,8.90748441 L86.8561086,8.90748441 C86,8.90748441 85.2995475,9.55925156 85.2995475,10.3558559 L85.2995475,33.529799 C85.2995475,34.3264033 86,34.9781705 86.8561086,34.9781705 L89.6579186,34.9781705 C90.5140271,34.9781705 91.2144796,34.3264033 91.2144796,33.529799 L91.2144796,20.0599446 C91.2144796,18.1770617 91.8371041,16.6562717 93.160181,15.4251559 C94.4832579,14.2664588 96.1176471,13.6871102 97.9855204,13.6871102 C99.8533937,13.6871102 101.332127,14.2664588 102.499548,15.3527374 C103.666968,16.5114345 104.211765,18.0322245 104.211765,19.987526 L104.211765,33.4573805 C104.211765,34.2539848 104.912217,34.9057519 105.768326,34.9057519 L108.570136,34.9057519 C109.426244,34.9057519 110.126697,34.2539848 110.126697,33.4573805 L110.126697,19.9151074 C110.126697,16.4390159 108.959276,13.6146916 106.624434,11.4421344 C105.768326,10.4282744 104.523077,9.7040887 103.122172,9.1971587 Z" id="Shape" fill="#FFFCF5"></path>
        <path d="M134.097738,10.2834373 L134.097738,11.1524602 C131.99638,9.34199584 129.272398,8.47297297 126.081448,8.47297297 C121.878733,8.47297297 118.454299,9.77650728 115.885973,12.4559945 C113.395475,14.9906445 112.150226,18.2494802 112.150226,21.9428274 C112.150226,25.6361746 113.395475,28.8950104 115.885973,31.4296604 C118.454299,34.036729 121.800905,35.4126819 125.847964,35.4126819 C129.19457,35.4126819 131.99638,34.543659 134.097738,32.7331947 L134.097738,33.529799 C134.097738,34.3264033 134.79819,34.9781705 135.654299,34.9781705 L138.533937,34.9781705 C139.390045,34.9781705 140.090498,34.3264033 140.090498,33.529799 L140.090498,10.2834373 C140.090498,9.48683299 139.390045,8.83506584 138.533937,8.83506584 L135.654299,8.83506584 C134.79819,8.83506584 134.097738,9.48683299 134.097738,10.2834373 Z M134.331222,21.8704089 C134.331222,24.2602218 133.630769,26.2155232 132.229864,27.7363132 C130.828959,29.3295218 128.883258,30.1261261 126.39276,30.1261261 C123.902262,30.1261261 121.956561,29.3295218 120.4,27.7363132 C118.921267,26.2155232 118.220814,24.2602218 118.220814,21.8704089 C118.220814,19.480596 118.921267,17.5977131 120.4,16.0045045 C121.956561,14.4112959 123.902262,13.6146916 126.39276,13.6146916 C128.883258,13.6146916 130.828959,14.4112959 132.229864,16.0045045 C133.630769,17.5977131 134.331222,19.480596 134.331222,21.8704089 Z" id="Shape" fill="#FFFCF5"></path>
        <path d="M169.353846,29.8364518 L170.832579,29.8364518 C171.299548,29.8364518 171.688688,29.474359 171.688688,29.0398475 L171.688688,16.8735274 C171.688688,16.4390159 171.299548,16.0769231 170.832579,16.0769231 L169.353846,16.0769231 C168.886878,16.0769231 168.497738,16.4390159 168.497738,16.8735274 L168.497738,29.0398475 C168.497738,29.474359 168.886878,29.8364518 169.353846,29.8364518 Z" id="Shape" fill="#FFFCF5"></path>
        <path d="M169.276018,15.0630631 L170.910407,15.0630631 C171.377376,15.0630631 171.766516,14.7009702 171.766516,14.2664588 L171.766516,12.3111573 C171.766516,11.8766459 171.377376,11.514553 170.910407,11.514553 L169.276018,11.514553 C168.80905,11.514553 168.41991,11.8766459 168.41991,12.3111573 L168.41991,14.2664588 C168.41991,14.7009702 168.80905,15.0630631 169.276018,15.0630631 Z" id="Shape" fill="#FFFCF5"></path>
        <path d="M146.472398,24.549896 L146.472398,24.549896 C147.406335,24.549896 148.106787,23.8981289 148.106787,23.029106 L148.106787,22.5945946 C148.106787,21.7255717 147.406335,21.0738046 146.472398,21.0738046 L146.472398,21.0738046 C145.538462,21.0738046 144.838009,21.7255717 144.838009,22.5945946 L144.838009,23.029106 C144.760181,23.8981289 145.538462,24.549896 146.472398,24.549896 Z" id="Shape" fill="#FFFCF5"></path>
        <path d="M163.672398,16.8735274 L163.672398,17.3804574 C162.582805,16.4390159 161.1819,16.0045045 159.469683,16.0045045 C157.290498,16.0045045 155.500452,16.7286902 154.177376,18.1046431 C152.932127,19.4081774 152.231674,21.1462231 152.231674,23.1015246 C152.231674,25.0568261 152.854299,26.7224532 154.177376,28.0984061 C155.500452,29.474359 157.290498,30.1985447 159.391855,30.1985447 C161.1819,30.1985447 162.582805,29.7640333 163.750226,28.8225918 L163.750226,29.2571033 C163.750226,29.6916147 164.139367,30.0537076 164.606335,30.0537076 L166.085068,30.0537076 C166.552036,30.0537076 166.863348,29.6916147 166.863348,29.3295218 L166.863348,16.8735274 C166.863348,16.4390159 166.474208,16.0769231 166.00724,16.0769231 L164.528507,16.0769231 C164.061538,16.1493416 163.672398,16.5114345 163.672398,16.8735274 Z M163.828054,22.9566875 C163.828054,24.1878032 163.438914,25.2016632 162.738462,25.9982675 C161.960181,26.7948718 160.948416,27.2293832 159.703167,27.2293832 C158.38009,27.2293832 157.368326,26.7948718 156.590045,25.9982675 C155.811765,25.2016632 155.422624,24.1878032 155.422624,22.9566875 C155.422624,21.7255717 155.811765,20.7117117 156.590045,19.9151074 C157.368326,19.0460845 158.457919,18.6839917 159.703167,18.6839917 C161.026244,18.6839917 162.038009,19.1185031 162.738462,19.9151074 C163.438914,20.7117117 163.828054,21.7255717 163.828054,22.9566875 Z" id="Shape" fill="#FFFCF5"></path>
        <path d="M21.8696833,10.2834373 L21.8696833,11.1524602 C19.7683258,9.34199584 17.0443439,8.47297297 13.8533937,8.47297297 C9.65067873,8.47297297 6.22624434,9.77650728 3.65791855,12.4559945 C1.24524887,14.9182259 0,18.1046431 0,21.8704089 C0,25.6361746 1.24524887,28.8225918 3.73574661,31.3572419 C6.3040724,33.9643105 9.65067873,35.3402633 13.6977376,35.3402633 C17.0443439,35.3402633 19.8461538,34.4712405 21.9475113,32.6607762 L21.9475113,33.4573805 C21.9475113,34.2539848 22.6479638,34.9057519 23.5040724,34.9057519 L26.3837104,34.9057519 C27.239819,34.9057519 27.9402715,34.2539848 27.9402715,33.4573805 L27.9402715,10.2834373 C27.9402715,9.48683299 27.239819,8.83506584 26.3837104,8.83506584 L23.5040724,8.83506584 C22.6479638,8.83506584 21.8696833,9.48683299 21.8696833,10.2834373 Z M22.1031674,21.8704089 C22.1031674,24.2602218 21.4027149,26.2155232 20.00181,27.7363132 C18.600905,29.3295218 16.6552036,30.1261261 14.1647059,30.1261261 C11.6742081,30.1261261 9.72850679,29.3295218 8.1719457,27.7363132 C6.69321267,26.2155232 5.99276018,24.2602218 5.99276018,21.8704089 C5.99276018,19.480596 6.69321267,17.5977131 8.1719457,16.0045045 C9.72850679,14.4112959 11.6742081,13.6146916 14.1647059,13.6146916 C16.6552036,13.6146916 18.600905,14.4112959 20.00181,16.0045045 C21.4027149,17.5977131 22.1031674,19.480596 22.1031674,21.8704089 Z" id="Shape" fill="#FFFCF5"></path>
        <polygon id="Shape" fill="#FFFFFF" points="4.74751131 50.8378378 3.89140271 50.8378378 3.89140271 47.9410949 0.622624434 43.523562 1.71221719 43.523562 4.35837104 47.0720721 7.00452489 43.523562 8.09411765 43.523562 4.82533937 47.9410949 4.82533937 50.8378378"></polygon>
        <path d="M10.2733032,45.1891892 C11.1294118,45.1891892 11.9076923,45.4788635 12.4524887,45.9857935 C12.9972851,46.4927235 13.2307692,47.2169092 13.2307692,48.0135135 C13.2307692,48.8101178 12.9972851,49.5343035 12.4524887,50.0412335 C11.9076923,50.6205821 11.2072398,50.8378378 10.2733032,50.8378378 C9.41719457,50.8378378 8.63891403,50.5481635 8.09411765,50.0412335 C7.54932127,49.5343035 7.3158371,48.8101178 7.3158371,48.0135135 C7.3158371,47.2169092 7.54932127,46.4927235 8.09411765,45.9857935 C8.63891403,45.4788635 9.33936652,45.1891892 10.2733032,45.1891892 Z M10.2733032,50.1136521 C10.8959276,50.1136521 11.440724,49.8963964 11.7520362,49.461885 C12.1411765,49.0997921 12.2968326,48.5928621 12.2968326,48.0135135 C12.2968326,47.4341649 12.1411765,46.9272349 11.7520362,46.5651421 C11.3628959,46.1306306 10.8959276,45.9133749 10.2733032,45.9133749 C9.65067873,45.9133749 9.10588235,46.1306306 8.79457014,46.5651421 C8.40542986,46.9272349 8.24977376,47.4341649 8.24977376,48.0135135 C8.24977376,48.5928621 8.40542986,49.0997921 8.79457014,49.461885 C9.10588235,49.968815 9.57285068,50.1136521 10.2733032,50.1136521 Z" id="Shape" fill="#FFFFFF"></path>
        <path d="M18.4452489,50.8378378 L18.4452489,49.968815 C18.2117647,50.2584893 17.9782805,50.475745 17.6669683,50.6205821 C17.3556561,50.8378378 17.0443439,50.9102564 16.5773756,50.9102564 C16.1882353,50.9102564 15.8769231,50.8378378 15.5656109,50.7654193 C15.2542986,50.6930007 15.0208145,50.475745 14.7873303,50.3309078 C14.320362,49.8963964 14.0868778,49.3170478 14.0868778,48.5928621 L14.0868778,45.4064449 L14.9429864,45.4064449 L14.9429864,48.5928621 C14.9429864,49.0997921 15.0986425,49.5343035 15.4099548,49.8239778 C15.721267,50.1136521 16.1104072,50.2584893 16.5773756,50.2584893 C17.0443439,50.2584893 17.5113122,50.1136521 17.8226244,49.8239778 C18.1339367,49.5343035 18.3674208,49.0997921 18.3674208,48.5928621 L18.3674208,45.4064449 L19.2235294,45.4064449 L19.2235294,50.9102564 L18.4452489,50.9102564 L18.4452489,50.8378378 Z" id="Shape" fill="#FFFFFF"></path>
        <path d="M23.8153846,45.1891892 L23.8153846,45.9857935 L23.7375566,45.9857935 C23.1149321,45.9857935 22.5701357,46.2030492 22.1809955,46.7099792 C21.7918552,47.1444906 21.6361991,47.7238392 21.6361991,48.3756064 L21.6361991,50.7654193 L20.7800905,50.7654193 L20.7800905,45.2616078 L21.6361991,45.2616078 L21.6361991,46.6375606 C21.7918552,46.0582121 22.2588235,45.6237006 22.881448,45.4064449 C23.0371041,45.2616078 23.4262443,45.1891892 23.8153846,45.1891892 L23.8153846,45.1891892 Z" id="Shape" fill="#FFFFFF"></path>
        <path d="M29.6524887,50.1136521 C30.041629,50.1136521 30.3529412,50.0412335 30.6642534,49.8239778 C30.9755656,49.6067221 31.1312217,49.3894664 31.2868778,49.0273735 L32.2208145,49.0273735 C32.0651584,49.6067221 31.6760181,50.0412335 31.2090498,50.3309078 C30.7420814,50.6930007 30.119457,50.8378378 29.4190045,50.8378378 C28.5628959,50.8378378 27.8624434,50.5481635 27.3176471,50.0412335 C26.7728507,49.5343035 26.5393665,48.8101178 26.5393665,48.0135135 C26.5393665,47.2169092 26.7728507,46.5651421 27.3176471,45.9857935 C27.8624434,45.4064449 28.5628959,45.1891892 29.4190045,45.1891892 C30.119457,45.1891892 30.7420814,45.3340263 31.2090498,45.6961192 C31.6760181,46.0582121 31.9873303,46.4927235 32.2208145,46.9996535 L31.2868778,46.9996535 C31.1312217,46.7099792 30.9755656,46.4203049 30.6642534,46.2030492 C30.3529412,45.9857935 30.041629,45.9133749 29.6524887,45.9133749 C29.2633484,45.9133749 28.9520362,45.9857935 28.718552,46.0582121 C28.4850679,46.1306306 28.2515837,46.3478863 28.0180995,46.5651421 C27.6289593,46.9272349 27.4733032,47.4341649 27.4733032,48.0135135 C27.4733032,48.5928621 27.6289593,49.0997921 28.0180995,49.461885 C28.4072398,49.968815 28.9520362,50.1136521 29.6524887,50.1136521 Z" id="Shape" fill="#FFFFFF"></path>
        <path d="M34.0886878,43.0890506 L34.0886878,46.1306306 C34.3221719,45.8409563 34.5556561,45.6237006 34.8669683,45.4788635 C35.1782805,45.2616078 35.4895928,45.1891892 35.9565611,45.1891892 C36.3457014,45.1891892 36.6570136,45.2616078 36.9683258,45.3340263 C37.279638,45.4064449 37.5131222,45.6237006 37.7466063,45.7685378 C38.2135747,46.2030492 38.4470588,46.7823978 38.4470588,47.5065835 L38.4470588,50.6930007 L37.5909502,50.6930007 L37.5909502,47.5065835 C37.5909502,46.9996535 37.4352941,46.5651421 37.1239819,46.2754678 C36.8126697,45.9857935 36.4235294,45.8409563 35.9565611,45.8409563 C35.4895928,45.8409563 35.0226244,45.9857935 34.7113122,46.2754678 C34.4,46.5651421 34.1665158,46.9996535 34.1665158,47.5065835 L34.1665158,50.6930007 L33.3104072,50.6930007 L33.3104072,43.0890506 L34.0886878,43.0890506 Z" id="Shape" fill="#FFFFFF"></path>
        <path d="M44.361991,49.8963964 C43.8950226,50.5481635 43.1945701,50.8378378 42.2606335,50.8378378 C41.4045249,50.8378378 40.7040724,50.5481635 40.159276,50.0412335 C39.6144796,49.461885 39.3809955,48.8101178 39.3809955,48.0135135 C39.3809955,47.2169092 39.6144796,46.5651421 40.159276,45.9857935 C40.7040724,45.4064449 41.4045249,45.1891892 42.3384615,45.1891892 C43.1945701,45.1891892 43.8950226,45.5512821 44.361991,46.2030492 L44.361991,45.3340263 L45.2180995,45.3340263 L45.2180995,50.8378378 L44.361991,50.8378378 L44.361991,49.8963964 Z M42.3384615,50.1136521 C42.961086,50.1136521 43.5058824,49.8963964 43.8171946,49.461885 C44.2063348,49.0997921 44.361991,48.5928621 44.361991,48.0135135 C44.361991,47.4341649 44.2063348,46.9272349 43.8171946,46.5651421 C43.4280543,46.1306306 42.961086,45.9133749 42.3384615,45.9133749 C41.7158371,45.9133749 41.1710407,46.1306306 40.7819005,46.5651421 C40.3927602,46.9272349 40.2371041,47.4341649 40.2371041,48.0135135 C40.2371041,48.5928621 40.3927602,49.0997921 40.7819005,49.461885 C41.1710407,49.968815 41.7158371,50.1136521 42.3384615,50.1136521 Z" id="Shape" fill="#FFFFFF"></path>
        <path d="M49.7321267,45.1891892 L49.7321267,45.9857935 L49.6542986,45.9857935 C49.0316742,45.9857935 48.4868778,46.2030492 48.0977376,46.7099792 C47.7085973,47.1444906 47.5529412,47.7238392 47.5529412,48.3756064 L47.5529412,50.7654193 L46.6968326,50.7654193 L46.6968326,45.2616078 L47.4751131,45.2616078 L47.4751131,46.6375606 C47.6307692,46.0582121 48.0977376,45.6237006 48.720362,45.4064449 C48.9538462,45.2616078 49.2651584,45.1891892 49.7321267,45.1891892 L49.7321267,45.1891892 Z" id="Shape" fill="#FFFFFF"></path>
        <path d="M51.3665158,46.1306306 C51.7556561,45.4788635 52.3782805,45.1891892 53.1565611,45.1891892 C53.5457014,45.1891892 53.9348416,45.2616078 54.2461538,45.4788635 C54.5574661,45.6961192 54.8687783,45.9133749 55.0244344,46.2754678 C55.2579186,45.8409563 55.7248869,45.4788635 56.2696833,45.2616078 C56.5031674,45.1891892 56.7366516,45.1167706 57.0479638,45.1167706 C57.359276,45.1167706 57.5927602,45.1891892 57.9040724,45.2616078 C58.1375566,45.3340263 58.3710407,45.5512821 58.6045249,45.6961192 C59.0714932,46.1306306 59.3049774,46.7099792 59.3049774,47.3617464 L59.3049774,50.6930007 L58.3710407,50.6930007 L58.3710407,47.3617464 C58.3710407,46.9272349 58.2153846,46.5651421 57.9819005,46.2030492 C57.6705882,45.9133749 57.359276,45.7685378 56.8923077,45.7685378 C56.4253394,45.7685378 56.0361991,45.9133749 55.8027149,46.2030492 C55.4914027,46.4927235 55.3357466,46.8548164 55.3357466,47.3617464 L55.3357466,50.6205821 L54.479638,50.6205821 L54.479638,47.2893278 C54.479638,46.8548164 54.3239819,46.4927235 54.0904977,46.1306306 C53.7791855,45.8409563 53.4678733,45.6961192 53.000905,45.6961192 C52.5339367,45.6961192 52.1447964,45.8409563 51.9113122,46.1306306 C51.6,46.4203049 51.4443439,46.7823978 51.4443439,47.2893278 L51.4443439,50.5481635 L50.5882353,50.5481635 L50.5882353,45.044352 L51.3665158,45.044352 L51.3665158,46.1306306 Z" id="Shape" fill="#FFFFFF"></path>
        <path d="M61.4841629,43.3063063 L61.4841629,44.3925849 L60.5502262,44.3925849 L60.5502262,43.3063063 L61.4841629,43.3063063 Z M60.6280543,45.2616078 L61.4841629,45.2616078 L61.4841629,50.7654193 L60.6280543,50.7654193 L60.6280543,45.2616078 Z" id="Shape" fill="#FFFFFF"></path>
        <path d="M63.7411765,45.2616078 L63.7411765,46.1306306 C63.9746606,45.8409563 64.2081448,45.6237006 64.519457,45.4788635 C64.8307692,45.2616078 65.1420814,45.1891892 65.6090498,45.1891892 C65.99819,45.1891892 66.3095023,45.2616078 66.6208145,45.3340263 C66.9321267,45.4064449 67.1656109,45.6237006 67.399095,45.7685378 C67.8660633,46.2030492 68.0995475,46.7823978 68.0995475,47.5065835 L68.0995475,50.6930007 L67.2434389,50.6930007 L67.2434389,47.5065835 C67.2434389,46.9996535 67.0877828,46.5651421 66.7764706,46.2754678 C66.4651584,45.9857935 66.0760181,45.8409563 65.6090498,45.8409563 C65.1420814,45.8409563 64.6751131,45.9857935 64.3638009,46.2754678 C64.0524887,46.5651421 63.8190045,46.9996535 63.8190045,47.5065835 L63.8190045,50.6930007 L62.9628959,50.6930007 L62.9628959,45.1891892 L63.7411765,45.1891892 L63.7411765,45.2616078 Z" id="Shape" fill="#FFFFFF"></path>
        <path d="M74.0144796,46.2030492 L74.0144796,45.3340263 L74.8705882,45.3340263 L74.8705882,50.6930007 C74.8705882,51.489605 74.6371041,52.0689536 74.1701357,52.503465 C73.7031674,52.9379764 73.0027149,53.1552322 72.2244344,53.1552322 C71.4461538,53.1552322 70.7457014,53.010395 70.278733,52.7207207 C69.8117647,52.4310464 69.5004525,52.0689536 69.3447964,51.5620236 L70.3565611,51.5620236 C70.5900452,52.1413721 71.2126697,52.4310464 72.0687783,52.4310464 C72.7692308,52.4310464 73.2361991,52.2862093 73.5475113,51.996535 C73.8588235,51.7068607 74.0144796,51.2723493 74.0144796,50.6930007 L74.0144796,49.968815 C73.5475113,50.6205821 72.8470588,50.982675 71.9131222,50.982675 C71.0570136,50.982675 70.3565611,50.6930007 69.8117647,50.1860707 C69.2669683,49.6791407 69.0334842,49.0273735 69.0334842,48.2307692 C69.0334842,47.4341649 69.2669683,46.7823978 69.8117647,46.2754678 C70.3565611,45.6961192 71.0570136,45.4788635 71.9909502,45.4788635 C72.9248869,45.4788635 73.5475113,45.5512821 74.0144796,46.2030492 Z M71.9909502,50.0412335 C72.3022624,50.0412335 72.6135747,49.968815 72.8470588,49.8963964 C73.080543,49.8239778 73.3140271,49.6791407 73.4696833,49.461885 C73.8588235,49.0997921 74.0144796,48.5928621 74.0144796,48.0135135 C74.0144796,47.4341649 73.8588235,46.9272349 73.4696833,46.5651421 C73.080543,46.2030492 72.6135747,45.9857935 71.9909502,45.9857935 C71.3683258,45.9857935 70.8235294,46.2030492 70.4343891,46.5651421 C70.0452489,46.9272349 69.8895928,47.4341649 69.8895928,48.0135135 C69.8895928,48.5928621 70.0452489,49.0997921 70.4343891,49.461885 C70.8235294,49.8239778 71.3683258,50.0412335 71.9909502,50.0412335 Z" id="Shape" fill="#FFFFFF"></path>
        <path d="M83.19819,49.8963964 C82.7312217,50.5481635 82.0307692,50.8378378 81.0968326,50.8378378 C80.240724,50.8378378 79.5402715,50.5481635 78.9954751,50.0412335 C78.4506787,49.461885 78.2171946,48.8101178 78.2171946,48.0135135 C78.2171946,47.2169092 78.4506787,46.5651421 78.9954751,45.9857935 C79.5402715,45.4064449 80.240724,45.1891892 81.1746606,45.1891892 C82.0307692,45.1891892 82.7312217,45.5512821 83.19819,46.2030492 L83.19819,43.0890506 L84.0542986,43.0890506 L84.0542986,50.7654193 L83.19819,50.7654193 L83.19819,49.8963964 L83.19819,49.8963964 Z M81.1746606,50.1136521 C81.7972851,50.1136521 82.3420814,49.8963964 82.6533937,49.461885 C83.0425339,49.0997921 83.19819,48.5928621 83.19819,48.0135135 C83.19819,47.4341649 83.0425339,46.9272349 82.6533937,46.5651421 C82.2642534,46.1306306 81.7972851,45.9133749 81.1746606,45.9133749 C80.5520362,45.9133749 80.0072398,46.1306306 79.6180995,46.5651421 C79.2289593,46.9272349 79.0733032,47.4341649 79.0733032,48.0135135 C79.0733032,48.5928621 79.2289593,49.0997921 79.6180995,49.461885 C80.0850679,49.968815 80.5520362,50.1136521 81.1746606,50.1136521 Z" id="Shape" fill="#FFFFFF"></path>
        <path d="M86.3891403,43.3063063 L86.3891403,44.3925849 L85.4552036,44.3925849 L85.4552036,43.3063063 L86.3891403,43.3063063 Z M85.4552036,45.2616078 L86.3113122,45.2616078 L86.3113122,50.7654193 L85.4552036,50.7654193 L85.4552036,45.2616078 Z" id="Shape" fill="#FFFFFF"></path>
        <path d="M92.3040724,46.2030492 L92.3040724,45.3340263 L93.160181,45.3340263 L93.160181,50.6930007 C93.160181,51.489605 92.9266968,52.0689536 92.4597285,52.503465 C91.9927602,52.9379764 91.2923077,53.1552322 90.5140271,53.1552322 C89.7357466,53.1552322 89.0352941,53.010395 88.5683258,52.7207207 C88.1013575,52.4310464 87.7900452,52.0689536 87.6343891,51.5620236 L88.6461538,51.5620236 C88.879638,52.1413721 89.5022624,52.4310464 90.358371,52.4310464 C91.0588235,52.4310464 91.5257919,52.2862093 91.8371041,51.996535 C92.1484163,51.7068607 92.3040724,51.2723493 92.3040724,50.6930007 L92.3040724,49.968815 C91.8371041,50.6205821 91.1366516,50.982675 90.2027149,50.982675 C89.3466063,50.982675 88.6461538,50.6930007 88.1013575,50.1860707 C87.5565611,49.6791407 87.3230769,49.0273735 87.3230769,48.2307692 C87.3230769,47.4341649 87.5565611,46.7823978 88.1013575,46.2754678 C88.6461538,45.6961192 89.3466063,45.4788635 90.280543,45.4788635 C91.2144796,45.4788635 91.8371041,45.5512821 92.3040724,46.2030492 Z M90.280543,50.0412335 C90.5918552,50.0412335 90.9031674,49.968815 91.1366516,49.8963964 C91.3701357,49.8239778 91.6036199,49.6791407 91.759276,49.461885 C92.1484163,49.0997921 92.3040724,48.5928621 92.3040724,48.0135135 C92.3040724,47.4341649 92.1484163,46.9272349 91.759276,46.5651421 C91.3701357,46.2030492 90.9031674,45.9857935 90.280543,45.9857935 C89.6579186,45.9857935 89.1131222,46.2030492 88.7239819,46.5651421 C88.3348416,46.9272349 88.1791855,47.4341649 88.1791855,48.0135135 C88.1791855,48.5928621 88.3348416,49.0997921 88.7239819,49.461885 C89.1909502,49.8239778 89.6579186,50.0412335 90.280543,50.0412335 Z" id="Shape" fill="#FFFFFF"></path>
        <path d="M95.4950226,43.3063063 L95.4950226,44.3925849 L94.561086,44.3925849 L94.561086,43.3063063 L95.4950226,43.3063063 Z M94.561086,45.2616078 L95.4171946,45.2616078 L95.4171946,50.7654193 L94.561086,50.7654193 L94.561086,45.2616078 Z" id="Shape" fill="#FFFFFF"></path>
        <polygon id="Shape" fill="#FFFFFF" points="97.440724 50.8378378 97.440724 46.0582121 96.1954751 46.0582121 96.1954751 45.3340263 97.440724 45.3340263 97.440724 43.3787249 98.2968326 43.3787249 98.2968326 45.3340263 99.6199095 45.3340263 99.6199095 46.0582121 98.2968326 46.0582121 98.2968326 50.8378378"></polygon>
        <path d="M104.990045,49.8963964 C104.523077,50.5481635 103.822624,50.8378378 102.888688,50.8378378 C102.032579,50.8378378 101.332127,50.5481635 100.78733,50.0412335 C100.242534,49.461885 100.00905,48.8101178 100.00905,48.0135135 C100.00905,47.2169092 100.242534,46.5651421 100.78733,45.9857935 C101.332127,45.4064449 102.032579,45.1891892 102.966516,45.1891892 C103.822624,45.1891892 104.523077,45.5512821 104.990045,46.2030492 L104.990045,45.3340263 L105.846154,45.3340263 L105.846154,50.8378378 L104.990045,50.8378378 L104.990045,49.8963964 L104.990045,49.8963964 Z M102.966516,50.1136521 C103.58914,50.1136521 104.133937,49.8963964 104.445249,49.461885 C104.834389,49.0997921 104.990045,48.5928621 104.990045,48.0135135 C104.990045,47.4341649 104.834389,46.9272349 104.445249,46.5651421 C104.056109,46.1306306 103.58914,45.9133749 102.966516,45.9133749 C102.343891,45.9133749 101.799095,46.1306306 101.409955,46.5651421 C101.020814,46.9272349 100.865158,47.4341649 100.865158,48.0135135 C100.865158,48.5928621 101.020814,49.0997921 101.409955,49.461885 C101.876923,49.968815 102.343891,50.1136521 102.966516,50.1136521 Z" id="Shape" fill="#FFFFFF"></path>
        <polygon id="Shape" fill="#FFFFFF" points="108.103167 50.8378378 107.247059 50.8378378 107.247059 43.0890506 108.103167 43.0890506"></polygon>
        <path d="M114.562896,50.1136521 C114.952036,50.1136521 115.263348,50.0412335 115.574661,49.8239778 C115.885973,49.6067221 116.041629,49.3894664 116.197285,49.0273735 L117.131222,49.0273735 C116.975566,49.6067221 116.586425,50.0412335 116.119457,50.3309078 C115.652489,50.6930007 115.029864,50.8378378 114.329412,50.8378378 C113.473303,50.8378378 112.772851,50.5481635 112.228054,50.0412335 C111.683258,49.5343035 111.449774,48.8101178 111.449774,48.0135135 C111.449774,47.2169092 111.683258,46.5651421 112.228054,45.9857935 C112.772851,45.4064449 113.473303,45.1891892 114.329412,45.1891892 C115.029864,45.1891892 115.652489,45.3340263 116.119457,45.6961192 C116.586425,46.0582121 116.897738,46.4927235 117.131222,46.9996535 L116.197285,46.9996535 C116.041629,46.7099792 115.885973,46.4203049 115.574661,46.2030492 C115.263348,45.9857935 114.952036,45.9133749 114.562896,45.9133749 C114.173756,45.9133749 113.862443,45.9857935 113.628959,46.0582121 C113.395475,46.1306306 113.161991,46.3478863 112.928507,46.4927235 C112.539367,46.8548164 112.38371,47.3617464 112.38371,47.9410949 C112.38371,48.5204435 112.539367,49.0273735 112.928507,49.3894664 C113.317647,49.968815 113.862443,50.1136521 114.562896,50.1136521 Z" id="Shape" fill="#FFFFFF"></path>
        <path d="M120.633484,45.1891892 C121.489593,45.1891892 122.267873,45.4788635 122.81267,45.9857935 C123.357466,46.4927235 123.59095,47.2169092 123.59095,48.0135135 C123.59095,48.8101178 123.357466,49.5343035 122.81267,50.0412335 C122.267873,50.6205821 121.567421,50.8378378 120.633484,50.8378378 C119.777376,50.8378378 118.999095,50.5481635 118.454299,50.0412335 C117.909502,49.5343035 117.676018,48.8101178 117.676018,48.0135135 C117.676018,47.2169092 117.909502,46.4927235 118.454299,45.9857935 C119.076923,45.4788635 119.777376,45.1891892 120.633484,45.1891892 Z M120.633484,50.1136521 C121.256109,50.1136521 121.800905,49.8963964 122.112217,49.461885 C122.501357,49.0997921 122.657014,48.5928621 122.657014,48.0135135 C122.657014,47.4341649 122.501357,46.9272349 122.112217,46.5651421 C121.723077,46.1306306 121.256109,45.9133749 120.633484,45.9133749 C120.01086,45.9133749 119.466063,46.1306306 119.154751,46.5651421 C118.765611,46.9272349 118.609955,47.4341649 118.609955,48.0135135 C118.609955,48.5928621 118.765611,49.0997921 119.154751,49.461885 C119.543891,49.968815 120.01086,50.1136521 120.633484,50.1136521 Z" id="Shape" fill="#FFFFFF"></path>
        <path d="M125.458824,46.1306306 C125.847964,45.4788635 126.470588,45.1891892 127.248869,45.1891892 C127.638009,45.1891892 128.027149,45.2616078 128.338462,45.4788635 C128.649774,45.6961192 128.961086,45.9133749 129.116742,46.2754678 C129.350226,45.8409563 129.817195,45.4788635 130.361991,45.2616078 C130.595475,45.1891892 130.828959,45.1167706 131.140271,45.1167706 C131.451584,45.1167706 131.685068,45.1891892 131.99638,45.2616078 C132.229864,45.3340263 132.463348,45.5512821 132.696833,45.6961192 C133.163801,46.1306306 133.397285,46.7099792 133.397285,47.3617464 L133.397285,50.6930007 L132.541176,50.6930007 L132.541176,47.3617464 C132.541176,46.9272349 132.38552,46.5651421 132.152036,46.2030492 C131.840724,45.9133749 131.529412,45.7685378 131.062443,45.7685378 C130.595475,45.7685378 130.206335,45.9133749 129.972851,46.2030492 C129.661538,46.4927235 129.505882,46.8548164 129.505882,47.3617464 L129.505882,50.6205821 L128.649774,50.6205821 L128.649774,47.2893278 C128.649774,46.8548164 128.494118,46.4927235 128.260633,46.1306306 C127.949321,45.8409563 127.638009,45.6961192 127.171041,45.6961192 C126.704072,45.6961192 126.314932,45.8409563 126.081448,46.1306306 C125.770136,46.4203049 125.61448,46.7823978 125.61448,47.2893278 L125.61448,50.5481635 L124.758371,50.5481635 L124.758371,45.044352 L125.61448,45.044352 L125.61448,46.1306306 L125.458824,46.1306306 Z" id="Shape" fill="#FFFFFF"></path>
        <path d="M135.576471,46.2030492 C136.043439,45.5512821 136.743891,45.2616078 137.677828,45.2616078 C138.533937,45.2616078 139.234389,45.5512821 139.779186,46.0582121 C140.323982,46.6375606 140.557466,47.2893278 140.557466,48.0859321 C140.557466,48.8825364 140.323982,49.5343035 139.779186,50.1136521 C139.234389,50.6930007 138.533937,50.9102564 137.677828,50.9102564 C136.821719,50.9102564 136.121267,50.5481635 135.654299,49.8963964 L135.654299,52.9379764 L134.79819,52.9379764 L134.79819,45.2616078 L135.654299,45.2616078 L135.654299,46.2030492 L135.576471,46.2030492 Z M137.6,45.9857935 C136.977376,45.9857935 136.432579,46.2030492 136.121267,46.6375606 C135.732127,46.9996535 135.576471,47.5065835 135.576471,48.0859321 C135.576471,48.6652807 135.732127,49.1722107 136.121267,49.5343035 C136.510407,49.968815 136.977376,50.1860707 137.6,50.1860707 C138.222624,50.1860707 138.767421,49.968815 139.156561,49.5343035 C139.545701,49.1722107 139.701357,48.6652807 139.701357,48.0859321 C139.701357,47.5065835 139.545701,46.9996535 139.156561,46.6375606 C138.689593,46.1306306 138.222624,45.9857935 137.6,45.9857935 Z" id="Shape" fill="#FFFFFF"></path>
        <path d="M146.161086,49.8963964 C145.694118,50.5481635 144.993665,50.8378378 144.059729,50.8378378 C143.20362,50.8378378 142.503167,50.5481635 141.958371,50.0412335 C141.413575,49.461885 141.18009,48.8101178 141.18009,48.0135135 C141.18009,47.2169092 141.413575,46.5651421 141.958371,45.9857935 C142.503167,45.4064449 143.20362,45.1891892 144.137557,45.1891892 C144.993665,45.1891892 145.694118,45.5512821 146.161086,46.2030492 L146.161086,45.3340263 L147.017195,45.3340263 L147.017195,50.8378378 L146.161086,50.8378378 L146.161086,49.8963964 L146.161086,49.8963964 Z M144.137557,50.1136521 C144.760181,50.1136521 145.304977,49.8963964 145.61629,49.461885 C146.00543,49.0997921 146.161086,48.5928621 146.161086,48.0135135 C146.161086,47.4341649 146.00543,46.9272349 145.61629,46.5651421 C145.227149,46.1306306 144.760181,45.9133749 144.137557,45.9133749 C143.514932,45.9133749 142.970136,46.1306306 142.580995,46.5651421 C142.191855,46.9272349 142.036199,47.4341649 142.036199,48.0135135 C142.036199,48.5928621 142.191855,49.0997921 142.580995,49.461885 C142.970136,49.968815 143.514932,50.1136521 144.137557,50.1136521 Z" id="Shape" fill="#FFFFFF"></path>
        <path d="M149.274208,45.2616078 L149.274208,46.1306306 C149.507692,45.8409563 149.741176,45.6237006 150.052489,45.4788635 C150.363801,45.2616078 150.675113,45.1891892 151.142081,45.1891892 C151.531222,45.1891892 151.842534,45.2616078 152.153846,45.3340263 C152.465158,45.4064449 152.698643,45.6237006 152.932127,45.7685378 C153.399095,46.2030492 153.632579,46.7823978 153.632579,47.5065835 L153.632579,50.6930007 L152.776471,50.6930007 L152.776471,47.5065835 C152.776471,46.9996535 152.620814,46.5651421 152.309502,46.2754678 C151.99819,45.9857935 151.60905,45.8409563 151.142081,45.8409563 C150.675113,45.8409563 150.208145,45.9857935 149.896833,46.2754678 C149.58552,46.5651421 149.352036,46.9996535 149.352036,47.5065835 L149.352036,50.6930007 L148.495928,50.6930007 L148.495928,45.1891892 L149.274208,45.1891892 L149.274208,45.2616078 Z" id="Shape" fill="#FFFFFF"></path>
        <path d="M155.811765,43.3063063 L155.811765,44.3925849 L154.877828,44.3925849 L154.877828,43.3063063 L155.811765,43.3063063 Z M154.955656,45.2616078 L155.811765,45.2616078 L155.811765,50.7654193 L154.955656,50.7654193 L154.955656,45.2616078 Z" id="Shape" fill="#FFFFFF"></path>
        <path d="M159.780995,45.1891892 C160.637104,45.1891892 161.415385,45.4788635 161.960181,45.9857935 C162.504977,46.4927235 162.738462,47.2169092 162.738462,48.0135135 C162.738462,48.8101178 162.504977,49.5343035 161.960181,50.0412335 C161.415385,50.6205821 160.714932,50.8378378 159.780995,50.8378378 C158.924887,50.8378378 158.146606,50.5481635 157.60181,50.0412335 C157.057014,49.5343035 156.823529,48.8101178 156.823529,48.0135135 C156.823529,47.2169092 157.057014,46.4927235 157.60181,45.9857935 C158.146606,45.4788635 158.847059,45.1891892 159.780995,45.1891892 Z M159.780995,50.1136521 C160.40362,50.1136521 160.948416,49.8963964 161.259729,49.461885 C161.648869,49.0997921 161.804525,48.5928621 161.804525,48.0135135 C161.804525,47.4341649 161.648869,46.9272349 161.259729,46.5651421 C160.870588,46.1306306 160.40362,45.9133749 159.780995,45.9133749 C159.158371,45.9133749 158.613575,46.1306306 158.302262,46.5651421 C157.913122,46.9272349 157.757466,47.4341649 157.757466,48.0135135 C157.757466,48.5928621 157.913122,49.0997921 158.302262,49.461885 C158.613575,49.968815 159.080543,50.1136521 159.780995,50.1136521 Z" id="Shape" fill="#FFFFFF"></path>
        <path d="M164.528507,45.2616078 L164.528507,46.1306306 C164.761991,45.8409563 164.995475,45.6237006 165.306787,45.4788635 C165.6181,45.2616078 165.929412,45.1891892 166.39638,45.1891892 C166.78552,45.1891892 167.096833,45.2616078 167.408145,45.3340263 C167.719457,45.4064449 167.952941,45.6237006 168.186425,45.7685378 C168.653394,46.2030492 168.886878,46.7823978 168.886878,47.5065835 L168.886878,50.6930007 L168.030769,50.6930007 L168.030769,47.5065835 C168.030769,46.9996535 167.875113,46.5651421 167.563801,46.2754678 C167.252489,45.9857935 166.863348,45.8409563 166.39638,45.8409563 C165.929412,45.8409563 165.462443,45.9857935 165.151131,46.2754678 C164.839819,46.5651421 164.606335,46.9996535 164.606335,47.5065835 L164.606335,50.6930007 L163.750226,50.6930007 L163.750226,45.1891892 L164.528507,45.1891892 L164.528507,45.2616078 Z" id="Shape" fill="#FFFFFF"></path>
        <polygon id="Shape" fill="#FFFFFF" points="171.221719 49.6791407 171.221719 50.8378378 170.054299 50.8378378 170.054299 49.6791407"></polygon>
    </g>
</svg>